<svg xmlns='http://www.w3.org/2000/svg' width='512' height='512' viewBox='0 0 512 512'><path d="M357.25 32.2L359.83 32.46L362.38 32.83L364.89 33.29L367.37 33.85L369.82 34.51L372.22 35.26L374.58 36.1L376.9 37.03L379.17 38.04L381.4 39.14L383.57 40.33L385.7 41.59L387.77 42.93L389.78 44.35L391.74 45.84L393.63 47.41L395.46 49.04L397.23 50.75L398.94 52.52L400.57 54.35L402.14 56.25L403.63 58.2L405.05 60.21L406.39 62.28L407.65 64.41L408.84 66.58L409.94 68.81L410.95 71.08L411.88 73.4L412.72 75.76L413.47 78.16L414.13 80.61L414.69 83.09L415.15 85.6L415.52 88.15L415.78 90.73L415.94 93.34L416 95.98L416 463.98L415.99 464.64L415.95 465.29L415.88 465.94L415.79 466.58L415.67 467.2L415.53 467.83L415.37 468.44L415.18 469.04L414.97 469.63L414.74 470.21L414.49 470.78L414.21 471.33L413.92 471.88L413.6 472.41L413.27 472.93L412.91 473.43L412.54 473.92L412.15 474.39L411.74 474.85L411.31 475.29L410.87 475.72L410.41 476.13L409.94 476.52L409.45 476.89L408.95 477.25L408.43 477.58L407.9 477.9L407.35 478.19L406.8 478.47L406.23 478.72L405.65 478.95L405.06 479.16L404.46 479.35L403.84 479.52L403.22 479.66L402.6 479.77L401.96 479.86L401.31 479.93L400.66 479.97L400 479.98L399.71 479.98L399.41 479.97L399.12 479.96L398.83 479.94L398.54 479.92L398.25 479.89L397.96 479.86L397.67 479.82L397.39 479.77L397.1 479.72L396.82 479.67L396.53 479.61L396.25 479.55L395.97 479.48L395.69 479.4L395.41 479.32L395.14 479.24L394.86 479.15L394.59 479.05L394.32 478.96L394.05 478.85L393.78 478.74L393.52 478.63L393.25 478.51L392.99 478.39L392.73 478.26L392.48 478.13L392.22 477.99L391.97 477.85L391.72 477.7L391.47 477.55L391.23 477.39L390.98 477.23L390.75 477.07L390.51 476.9L390.28 476.72L390.04 476.54L389.82 476.36L389.59 476.17L389.37 475.98L256 357.39L122.63 475.98L122.13 476.41L121.61 476.81L121.09 477.19L120.55 477.55L120 477.88L119.45 478.19L118.88 478.47L118.31 478.73L117.73 478.97L117.14 479.18L116.55 479.37L115.95 479.53L115.34 479.67L114.74 479.79L114.13 479.88L113.52 479.95L112.9 480L112.29 480.02L111.67 480.02L111.06 479.99L110.45 479.95L109.84 479.88L109.23 479.78L108.63 479.66L108.03 479.52L107.43 479.36L106.84 479.17L106.26 478.96L105.69 478.73L105.12 478.47L104.56 478.19L104.01 477.89L103.47 477.56L102.94 477.22L102.43 476.85L101.92 476.45L101.43 476.04L100.95 475.6L100.49 475.14L100.04 474.65L99.85 474.43L99.66 474.2L99.47 473.98L99.29 473.75L99.12 473.51L98.95 473.27L98.78 473.03L98.62 472.79L98.46 472.55L98.31 472.3L98.16 472.05L98.01 471.79L97.88 471.54L97.74 471.28L97.61 471.02L97.49 470.76L97.37 470.49L97.25 470.23L97.14 469.96L97.04 469.69L96.94 469.42L96.84 469.14L96.75 468.87L96.67 468.59L96.59 468.31L96.51 468.03L96.44 467.75L96.37 467.46L96.31 467.18L96.26 466.89L96.21 466.61L96.17 466.32L96.13 466.03L96.09 465.74L96.06 465.45L96.04 465.16L96.02 464.86L96.01 464.57L96 464.28L96 463.98L96 95.98L96.06 93.34L96.22 90.73L96.48 88.15L96.85 85.6L97.31 83.09L97.87 80.61L98.53 78.16L99.28 75.76L100.12 73.4L101.05 71.08L102.06 68.81L103.16 66.58L104.35 64.41L105.61 62.28L106.95 60.21L108.37 58.2L109.86 56.25L111.43 54.35L113.06 52.52L114.77 50.75L116.54 49.04L118.37 47.41L120.26 45.84L122.22 44.35L124.23 42.93L126.3 41.59L128.43 40.33L130.6 39.14L132.83 38.04L135.1 37.03L137.42 36.1L139.78 35.26L142.18 34.51L144.63 33.85L147.11 33.29L149.62 32.83L152.17 32.46L154.75 32.2L157.36 32.04L160 31.98L352 31.98L354.64 32.04L357.25 32.2ZM255.37 80.56L255.08 80.59L254.81 80.63L254.53 80.68L254.26 80.74L253.99 80.82L253.72 80.9L253.46 80.99L253.2 81.09L252.94 81.2L252.69 81.33L252.45 81.46L252.21 81.6L251.97 81.75L251.75 81.91L251.52 82.07L251.31 82.25L251.1 82.43L250.89 82.63L250.7 82.83L250.51 83.04L250.33 83.26L250.15 83.48L249.99 83.71L249.83 83.95L249.69 84.2L249.55 84.46L249.42 84.72L249.3 84.99L249.19 85.26L249.1 85.55L227.17 153.01L154.53 153.01L154.35 153.02L154.17 153.02L153.99 153.03L153.82 153.05L153.64 153.07L153.47 153.09L153.29 153.12L153.12 153.15L152.95 153.19L152.78 153.23L152.61 153.28L152.44 153.32L152.28 153.38L152.11 153.43L151.95 153.49L151.79 153.56L151.63 153.63L151.47 153.7L151.31 153.77L151.16 153.85L151.01 153.94L150.86 154.02L150.71 154.11L150.56 154.21L150.42 154.3L150.28 154.41L150.14 154.51L150 154.62L149.86 154.73L149.73 154.84L149.6 154.96L149.48 155.08L149.35 155.21L149.23 155.33L149.11 155.46L149 155.6L148.89 155.74L148.78 155.88L148.67 156.02L148.57 156.16L148.4 156.41L148.25 156.67L148.11 156.93L147.98 157.19L147.86 157.45L147.76 157.72L147.66 157.99L147.58 158.26L147.51 158.54L147.44 158.81L147.39 159.09L147.35 159.37L147.32 159.65L147.31 159.93L147.3 160.21L147.3 160.49L147.32 160.76L147.34 161.04L147.38 161.32L147.42 161.59L147.48 161.86L147.55 162.13L147.62 162.4L147.71 162.67L147.81 162.93L147.92 163.19L148.03 163.44L148.16 163.69L148.3 163.93L148.45 164.18L148.6 164.41L148.77 164.64L148.95 164.86L149.13 165.08L149.33 165.29L149.54 165.5L149.75 165.69L149.97 165.88L150.21 166.07L150.45 166.24L209.34 206.62L186.62 273.91L186.56 274.08L186.51 274.25L186.46 274.42L186.42 274.59L186.39 274.76L186.35 274.93L186.32 275.1L186.3 275.27L186.28 275.44L186.26 275.61L186.25 275.79L186.24 275.96L186.23 276.13L186.23 276.3L186.24 276.47L186.24 276.64L186.26 276.81L186.27 276.98L186.29 277.15L186.32 277.32L186.34 277.49L186.37 277.66L186.41 277.83L186.45 278L186.49 278.16L186.54 278.33L186.59 278.49L186.65 278.65L186.71 278.81L186.77 278.98L186.84 279.13L186.91 279.29L186.98 279.45L187.06 279.6L187.14 279.75L187.23 279.91L187.32 280.06L187.41 280.2L187.51 280.35L187.61 280.49L187.79 280.73L187.98 280.96L188.18 281.18L188.38 281.39L188.59 281.59L188.81 281.78L189.03 281.96L189.26 282.13L189.49 282.29L189.73 282.44L189.98 282.58L190.22 282.71L190.48 282.83L190.73 282.94L190.99 283.05L191.26 283.14L191.53 283.22L191.79 283.29L192.07 283.35L192.34 283.39L192.62 283.43L192.89 283.46L193.17 283.48L193.45 283.48L193.73 283.48L194.01 283.47L194.29 283.44L194.56 283.4L194.84 283.36L195.12 283.3L195.39 283.23L195.66 283.15L195.93 283.06L196.2 282.96L196.47 282.84L196.73 282.72L196.99 282.58L197.24 282.43L197.49 282.27L197.74 282.1L255.99 239.87L314.24 282.1L314.34 282.17L314.43 282.23L314.53 282.3L314.62 282.36L314.72 282.42L314.82 282.48L314.92 282.53L315.01 282.59L315.11 282.64L315.22 282.69L315.32 282.74L315.42 282.79L315.52 282.84L315.63 282.88L315.73 282.93L315.84 282.97L315.94 283.01L316.05 283.05L316.15 283.08L316.26 283.12L316.37 283.15L316.48 283.18L316.59 283.21L316.7 283.24L316.81 283.27L316.92 283.29L317.03 283.32L317.14 283.34L317.25 283.36L317.36 283.38L317.47 283.39L317.59 283.41L317.7 283.42L317.81 283.43L317.93 283.44L318.04 283.45L318.15 283.46L318.27 283.46L318.38 283.46L318.5 283.46L318.55 283.46L318.61 283.46L318.67 283.46L318.73 283.46L318.79 283.46L318.85 283.45L318.91 283.45L318.97 283.45L319.02 283.44L319.08 283.44L319.14 283.43L319.2 283.43L319.26 283.42L319.32 283.41L319.37 283.41L319.43 283.4L319.49 283.39L319.55 283.38L319.61 283.37L319.66 283.37L319.72 283.36L319.78 283.35L319.84 283.33L319.9 283.32L319.95 283.31L320.01 283.3L320.07 283.29L320.12 283.27L320.18 283.26L320.24 283.25L320.3 283.23L320.35 283.22L320.41 283.2L320.47 283.19L320.52 283.17L320.58 283.15L320.63 283.14L320.69 283.12L320.75 283.1L320.8 283.08L321.08 282.98L321.36 282.87L321.63 282.75L321.89 282.62L322.14 282.47L322.38 282.32L322.62 282.17L322.85 282L323.08 281.82L323.29 281.64L323.5 281.45L323.7 281.25L323.89 281.04L324.07 280.83L324.25 280.61L324.41 280.39L324.57 280.16L324.71 279.92L324.85 279.68L324.98 279.43L325.1 279.18L325.21 278.92L325.3 278.66L325.39 278.4L325.47 278.13L325.54 277.86L325.6 277.59L325.65 277.31L325.69 277.03L325.71 276.75L325.73 276.47L325.73 276.18L325.73 275.9L325.71 275.61L325.68 275.33L325.64 275.04L325.58 274.75L325.52 274.47L325.44 274.18L325.35 273.9L302.64 206.62L361.55 166.26L361.7 166.16L361.84 166.05L361.98 165.94L362.12 165.83L362.25 165.71L362.38 165.6L362.51 165.47L362.63 165.35L362.76 165.22L362.87 165.09L362.99 164.96L363.1 164.83L363.21 164.69L363.31 164.55L363.41 164.41L363.51 164.26L363.61 164.11L363.7 163.96L363.78 163.81L363.87 163.66L363.94 163.51L364.02 163.35L364.09 163.19L364.16 163.03L364.22 162.87L364.28 162.7L364.34 162.54L364.39 162.37L364.44 162.2L364.49 162.03L364.53 161.86L364.56 161.69L364.59 161.52L364.62 161.34L364.65 161.17L364.67 160.99L364.68 160.81L364.69 160.64L364.7 160.46L364.7 160.28L364.69 159.98L364.68 159.68L364.65 159.39L364.61 159.1L364.55 158.82L364.49 158.54L364.41 158.26L364.33 157.99L364.23 157.72L364.13 157.46L364.01 157.2L363.89 156.95L363.76 156.7L363.61 156.46L363.46 156.23L363.3 156L363.13 155.78L362.95 155.56L362.77 155.36L362.58 155.16L362.37 154.96L362.17 154.78L361.95 154.6L361.73 154.43L361.5 154.27L361.27 154.12L361.03 153.98L360.78 153.84L360.53 153.72L360.27 153.6L360.01 153.5L359.74 153.4L359.47 153.32L359.19 153.25L358.91 153.18L358.63 153.13L358.34 153.09L358.04 153.06L357.75 153.04L357.45 153.04L284.81 153.04L262.88 85.55L262.83 85.38L262.77 85.22L262.7 85.06L262.64 84.9L262.57 84.74L262.49 84.59L262.42 84.43L262.34 84.28L262.25 84.13L262.16 83.99L262.07 83.84L261.98 83.7L261.88 83.56L261.78 83.42L261.68 83.29L261.57 83.16L261.46 83.03L261.35 82.9L261.23 82.78L261.11 82.66L260.99 82.54L260.87 82.42L260.74 82.31L260.61 82.2L260.48 82.09L260.35 81.99L260.21 81.89L260.07 81.79L259.93 81.7L259.78 81.61L259.64 81.52L259.49 81.43L259.34 81.35L259.18 81.28L259.03 81.2L258.87 81.13L258.71 81.07L258.55 81L258.39 80.94L258.22 80.89L257.94 80.8L257.65 80.73L257.36 80.67L257.08 80.62L256.79 80.58L256.5 80.55L256.22 80.54L255.93 80.53L255.65 80.54L255.37 80.56Z" id="a15kTmpTcx"/></svg>
