<?xml version="1.0" encoding="UTF-8" standalone="no"?>
<!DOCTYPE svg PUBLIC "-//W3C//DTD SVG 1.1//EN" "http://www.w3.org/Graphics/SVG/1.1/DTD/svg11.dtd">
<svg version="1.1" xmlns="http://www.w3.org/2000/svg" xmlns:xlink="http://www.w3.org/1999/xlink" preserveAspectRatio="xMidYMid meet" viewBox="263.26966292134824 247.53932584269654 84 84" width="80" height="80"><defs><path d="M310.43 248.55L310.51 248.56L310.58 248.57L310.65 248.59L310.72 248.61L310.79 248.64L310.86 248.67L310.92 248.7L310.98 248.74L311.05 248.78L311.1 248.82L311.16 248.86L311.22 248.91L311.27 248.97L311.32 249.02L311.37 249.08L311.42 249.14L311.47 249.21L311.52 249.27L311.56 249.34L311.61 249.41L311.65 249.49L311.69 249.56L311.73 249.64L311.77 249.72L311.81 249.81L311.85 249.89L311.89 249.98L311.92 250.07L311.96 250.16L312 250.25L312.03 250.34L312.07 250.44L312.1 250.54L312.13 250.63L312.17 250.73L312.2 250.83L312.24 250.94L312.27 251.04L314 257.53L314.54 257.7L315.74 258.12L316.92 258.59L318.07 259.11L319.21 259.67L319.3 259.72L325.13 256.34L325.23 256.29L325.32 256.24L325.42 256.2L325.51 256.15L325.61 256.11L325.7 256.06L325.79 256.02L325.88 255.98L325.97 255.94L326.06 255.9L326.15 255.86L326.24 255.83L326.33 255.79L326.41 255.76L326.5 255.73L326.58 255.71L326.67 255.68L326.75 255.66L326.83 255.64L326.91 255.63L326.99 255.61L327.07 255.6L327.15 255.59L327.23 255.59L327.3 255.58L327.38 255.58L327.45 255.59L327.52 255.6L327.6 255.61L327.67 255.62L327.74 255.64L327.8 255.66L327.87 255.69L327.94 255.72L328 255.75L328.07 255.79L328.13 255.83L328.19 255.88L328.25 255.93L328.31 255.99L336.8 264.47L336.85 264.53L336.91 264.59L336.95 264.66L337 264.72L337.04 264.79L337.07 264.85L337.1 264.92L337.13 264.99L337.16 265.06L337.18 265.13L337.19 265.2L337.21 265.28L337.22 265.35L337.22 265.43L337.23 265.51L337.23 265.58L337.22 265.66L337.22 265.74L337.21 265.83L337.19 265.91L337.18 265.99L337.16 266.07L337.14 266.16L337.12 266.24L337.09 266.33L337.06 266.41L337.03 266.5L337 266.59L336.96 266.67L336.92 266.76L336.88 266.85L336.84 266.94L336.8 267.03L336.75 267.12L336.71 267.21L336.66 267.3L336.61 267.39L336.55 267.48L336.5 267.57L336.44 267.66L333.07 273.48L333.14 273.6L333.7 274.73L334.22 275.89L334.69 277.07L335.11 278.27L335.28 278.81L341.77 280.54L341.87 280.56L341.97 280.59L342.08 280.62L342.17 280.64L342.27 280.67L342.37 280.7L342.47 280.73L342.56 280.76L342.65 280.8L342.74 280.83L342.83 280.87L342.92 280.9L343 280.94L343.09 280.98L343.17 281.02L343.25 281.06L343.32 281.11L343.4 281.15L343.47 281.2L343.54 281.25L343.6 281.29L343.67 281.34L343.73 281.4L343.79 281.45L343.84 281.51L343.89 281.56L343.94 281.62L343.99 281.68L344.03 281.74L344.07 281.81L344.11 281.87L344.14 281.94L344.17 282.01L344.2 282.08L344.22 282.15L344.24 282.22L344.25 282.3L344.26 282.38L344.27 282.46L344.27 282.54L344.27 294.54L344.27 294.62L344.26 294.7L344.25 294.78L344.24 294.85L344.22 294.92L344.2 294.99L344.17 295.06L344.14 295.13L344.11 295.19L344.07 295.25L344.03 295.31L343.99 295.37L343.94 295.43L343.89 295.49L343.84 295.54L343.79 295.59L343.73 295.64L343.67 295.69L343.6 295.74L343.54 295.79L343.47 295.83L343.4 295.87L343.32 295.92L343.25 295.96L343.17 296L343.09 296.04L343 296.08L342.92 296.12L342.83 296.16L342.74 296.19L342.65 296.23L342.56 296.27L342.47 296.3L342.37 296.34L342.27 296.37L342.17 296.4L342.08 296.44L341.97 296.47L341.87 296.51L341.77 296.54L335.28 298.27L335.11 298.81L334.69 300.01L334.22 301.19L333.7 302.34L333.14 303.47L333.08 303.59L336.44 309.4L336.5 309.49L336.55 309.58L336.61 309.67L336.66 309.76L336.71 309.85L336.75 309.94L336.8 310.03L336.84 310.12L336.88 310.21L336.92 310.29L336.96 310.38L337 310.47L337.03 310.56L337.06 310.64L337.09 310.73L337.12 310.81L337.14 310.9L337.16 310.98L337.18 311.07L337.19 311.15L337.21 311.23L337.22 311.31L337.22 311.39L337.23 311.47L337.23 311.55L337.22 311.63L337.22 311.7L337.21 311.78L337.19 311.85L337.18 311.92L337.16 312L337.13 312.07L337.1 312.13L337.07 312.2L337.04 312.27L337 312.33L336.95 312.4L336.91 312.46L336.85 312.52L336.8 312.58L328.31 321.07L328.25 321.12L328.19 321.17L328.13 321.22L328.07 321.26L328 321.3L327.94 321.34L327.87 321.37L327.8 321.39L327.74 321.41L327.67 321.43L327.6 321.45L327.52 321.46L327.45 321.47L327.38 321.47L327.3 321.47L327.23 321.47L327.15 321.46L327.07 321.45L326.99 321.44L326.91 321.43L326.83 321.41L326.75 321.39L326.67 321.37L326.58 321.35L326.5 321.32L326.41 321.29L326.33 321.26L326.24 321.23L326.15 321.19L326.06 321.16L325.97 321.12L325.88 321.08L325.79 321.04L325.7 320.99L325.61 320.95L325.51 320.9L325.42 320.86L325.32 320.81L325.23 320.76L325.13 320.71L319.32 317.35L319.21 317.41L318.07 317.97L316.92 318.49L315.74 318.96L314.54 319.38L314 319.55L312.27 326.04L312.24 326.14L312.2 326.24L312.17 326.35L312.13 326.44L312.1 326.54L312.07 326.64L312.03 326.74L312 326.83L311.96 326.92L311.92 327.01L311.89 327.1L311.85 327.19L311.81 327.27L311.77 327.36L311.73 327.44L311.69 327.52L311.65 327.59L311.61 327.67L311.56 327.74L311.52 327.81L311.47 327.87L311.42 327.94L311.37 328L311.32 328.06L311.27 328.11L311.22 328.16L311.16 328.21L311.1 328.26L311.05 328.3L310.98 328.34L310.92 328.38L310.86 328.41L310.79 328.44L310.72 328.47L310.65 328.49L310.58 328.51L310.51 328.52L310.43 328.53L310.35 328.54L310.27 328.54L298.27 328.54L298.19 328.54L298.11 328.53L298.03 328.52L297.95 328.51L297.88 328.49L297.81 328.47L297.74 328.44L297.67 328.41L297.6 328.38L297.54 328.34L297.47 328.3L297.41 328.26L297.35 328.21L297.29 328.16L297.24 328.11L297.18 328.06L297.13 328L297.08 327.94L297.02 327.87L296.98 327.81L296.93 327.74L296.88 327.67L296.84 327.59L296.79 327.52L296.75 327.44L296.71 327.36L296.67 327.27L296.63 327.19L296.6 327.1L296.56 327.01L296.53 326.92L296.49 326.83L296.46 326.74L296.43 326.64L296.4 326.54L296.37 326.44L296.35 326.35L296.32 326.24L296.29 326.14L296.27 326.04L294.54 319.55L294 319.38L292.8 318.96L291.62 318.49L290.46 317.97L289.33 317.41L289.2 317.34L283.41 320.69L283.32 320.74L283.23 320.8L283.14 320.85L283.05 320.9L282.96 320.95L282.87 321L282.78 321.04L282.69 321.09L282.6 321.13L282.52 321.17L282.43 321.21L282.34 321.24L282.25 321.28L282.17 321.31L282.08 321.34L282 321.36L281.91 321.39L281.83 321.41L281.74 321.42L281.66 321.44L281.58 321.45L281.5 321.46L281.42 321.47L281.34 321.47L281.26 321.47L281.18 321.47L281.11 321.46L281.03 321.45L280.96 321.44L280.89 321.42L280.81 321.4L280.74 321.38L280.67 321.35L280.61 321.32L280.54 321.28L280.47 321.24L280.41 321.2L280.35 321.15L280.29 321.1L280.23 321.04L271.74 312.56L271.69 312.5L271.63 312.44L271.59 312.38L271.55 312.31L271.51 312.25L271.47 312.18L271.44 312.12L271.42 312.05L271.39 311.98L271.38 311.91L271.36 311.84L271.35 311.77L271.34 311.7L271.34 311.62L271.34 311.55L271.34 311.47L271.35 311.4L271.35 311.32L271.37 311.24L271.38 311.16L271.4 311.08L271.42 311L271.44 310.91L271.46 310.83L271.49 310.74L271.52 310.66L271.55 310.57L271.58 310.48L271.62 310.4L271.65 310.31L271.69 310.22L271.73 310.13L271.77 310.04L271.82 309.94L271.86 309.85L271.91 309.76L271.95 309.66L272 309.57L272.05 309.47L272.1 309.38L275.45 303.58L275.4 303.47L274.84 302.34L274.32 301.19L273.85 300.01L273.43 298.81L273.26 298.27L266.77 296.54L266.67 296.51L266.56 296.47L266.46 296.44L266.36 296.4L266.27 296.37L266.17 296.34L266.07 296.3L265.98 296.27L265.89 296.23L265.8 296.19L265.71 296.16L265.62 296.12L265.54 296.08L265.45 296.04L265.37 296L265.29 295.96L265.22 295.92L265.14 295.87L265.07 295.83L265 295.79L264.94 295.74L264.87 295.69L264.81 295.64L264.75 295.59L264.7 295.54L264.64 295.49L264.6 295.43L264.55 295.37L264.51 295.31L264.47 295.25L264.43 295.19L264.4 295.13L264.37 295.06L264.34 294.99L264.32 294.92L264.3 294.85L264.29 294.78L264.28 294.7L264.27 294.62L264.27 294.54L264.27 282.54L264.27 282.46L264.28 282.38L264.29 282.3L264.3 282.22L264.32 282.15L264.34 282.08L264.37 282.01L264.4 281.94L264.43 281.87L264.47 281.81L264.51 281.74L264.55 281.68L264.6 281.62L264.64 281.56L264.7 281.51L264.75 281.45L264.81 281.4L264.87 281.34L264.94 281.29L265 281.25L265.07 281.2L265.14 281.15L265.22 281.11L265.29 281.06L265.37 281.02L265.45 280.98L265.54 280.94L265.62 280.9L265.71 280.87L265.8 280.83L265.89 280.8L265.98 280.76L266.07 280.73L266.17 280.7L266.27 280.67L266.36 280.64L266.46 280.62L266.56 280.59L266.67 280.56L266.77 280.54L273.26 278.81L273.43 278.27L273.85 277.07L274.32 275.89L274.84 274.73L275.4 273.6L275.46 273.49L272.1 267.68L272.05 267.58L272 267.49L271.95 267.39L271.91 267.3L271.86 267.2L271.82 267.11L271.77 267.02L271.73 266.93L271.69 266.84L271.65 266.75L271.62 266.66L271.58 266.57L271.55 266.48L271.52 266.4L271.49 266.31L271.46 266.23L271.44 266.14L271.42 266.06L271.4 265.98L271.38 265.9L271.37 265.82L271.35 265.74L271.35 265.66L271.34 265.58L271.34 265.51L271.34 265.43L271.34 265.36L271.35 265.28L271.36 265.21L271.38 265.14L271.39 265.07L271.42 265L271.44 264.94L271.47 264.87L271.51 264.81L271.55 264.74L271.59 264.68L271.63 264.62L271.69 264.56L271.74 264.5L280.23 256.01L280.29 255.96L280.35 255.9L280.41 255.86L280.47 255.81L280.54 255.77L280.61 255.74L280.67 255.71L280.74 255.68L280.81 255.65L280.89 255.63L280.96 255.62L281.03 255.6L281.11 255.59L281.18 255.59L281.26 255.58L281.34 255.58L281.42 255.59L281.5 255.59L281.58 255.6L281.66 255.62L281.74 255.63L281.83 255.65L281.91 255.67L282 255.69L282.08 255.72L282.17 255.75L282.25 255.78L282.34 255.81L282.43 255.85L282.52 255.88L282.6 255.92L282.69 255.97L282.78 256.01L282.87 256.06L282.96 256.1L283.05 256.15L283.14 256.2L283.23 256.26L283.32 256.31L283.41 256.37L289.22 259.73L289.33 259.67L290.46 259.11L291.62 258.59L292.8 258.12L294 257.7L294.54 257.53L296.27 251.04L296.29 250.94L296.32 250.83L296.35 250.73L296.37 250.63L296.4 250.54L296.43 250.44L296.46 250.34L296.49 250.25L296.53 250.16L296.56 250.07L296.6 249.98L296.63 249.89L296.67 249.81L296.71 249.72L296.75 249.64L296.79 249.56L296.84 249.49L296.88 249.41L296.93 249.34L296.98 249.27L297.02 249.21L297.08 249.14L297.13 249.08L297.18 249.02L297.24 248.97L297.29 248.91L297.35 248.86L297.41 248.82L297.47 248.78L297.54 248.74L297.6 248.7L297.67 248.67L297.74 248.64L297.81 248.61L297.88 248.59L297.95 248.57L298.03 248.56L298.11 248.55L298.19 248.54L298.27 248.54L310.27 248.54L310.35 248.54L310.43 248.55ZM302.83 271.1L302.13 271.17L301.43 271.27L300.74 271.39L300.06 271.55L299.4 271.73L298.74 271.93L298.09 272.16L297.46 272.41L296.84 272.69L296.23 272.99L295.63 273.32L295.05 273.66L294.49 274.03L293.93 274.42L293.4 274.82L292.88 275.25L292.38 275.7L291.9 276.16L291.43 276.65L290.98 277.15L290.55 277.67L290.15 278.2L289.76 278.75L289.39 279.32L289.05 279.9L288.72 280.5L288.42 281.11L288.14 281.73L287.89 282.36L287.66 283.01L287.46 283.67L287.28 284.33L287.13 285.01L287 285.7L286.9 286.4L286.83 287.1L286.78 287.82L286.77 288.54L286.78 289.26L286.83 289.97L286.9 290.68L287 291.38L287.13 292.07L287.28 292.74L287.46 293.41L287.66 294.07L287.89 294.72L288.14 295.35L288.42 295.97L288.72 296.58L289.05 297.18L289.39 297.76L289.76 298.32L290.15 298.87L290.55 299.41L290.98 299.93L291.43 300.43L291.9 300.91L292.38 301.38L292.88 301.83L293.4 302.25L293.93 302.66L294.49 303.05L295.05 303.42L295.63 303.76L296.23 304.09L296.84 304.39L297.46 304.66L298.09 304.92L298.74 305.15L299.4 305.35L300.06 305.53L300.74 305.68L301.43 305.81L302.13 305.91L302.83 305.98L303.55 306.02L304.27 306.04L304.99 306.02L305.7 305.98L306.41 305.91L307.11 305.81L307.8 305.68L308.48 305.53L309.14 305.35L309.8 305.15L310.45 304.92L311.08 304.66L311.7 304.39L312.31 304.09L312.91 303.76L313.49 303.42L314.05 303.05L314.6 302.66L315.14 302.25L315.66 301.83L316.16 301.38L316.64 300.91L317.11 300.43L317.56 299.93L317.99 299.41L318.39 298.87L318.78 298.32L319.15 297.76L319.49 297.18L319.82 296.58L320.12 295.97L320.39 295.35L320.65 294.72L320.88 294.07L321.08 293.41L321.26 292.74L321.41 292.07L321.54 291.38L321.64 290.68L321.71 289.97L321.76 289.26L321.77 288.54L321.76 287.82L321.71 287.1L321.64 286.4L321.54 285.7L321.41 285.01L321.26 284.33L321.08 283.67L320.88 283.01L320.65 282.36L320.39 281.73L320.12 281.11L319.82 280.5L319.49 279.9L319.15 279.32L318.78 278.75L318.39 278.2L317.99 277.67L317.56 277.15L317.11 276.65L316.64 276.16L316.16 275.7L315.66 275.25L315.14 274.82L314.6 274.42L314.05 274.03L313.49 273.66L312.91 273.32L312.31 272.99L311.7 272.69L311.08 272.41L310.45 272.16L309.8 271.93L309.14 271.73L308.48 271.55L307.8 271.39L307.11 271.27L306.41 271.17L305.7 271.1L304.99 271.05L304.27 271.04L303.55 271.05L302.83 271.1Z" id="a2jgt4KDKa"></path></defs><g><g><use xlink:href="#a2jgt4KDKa" opacity="1" fill="#5f5f5f" fill-opacity="1"></use></g></g></svg>