<?xml version="1.0" standalone="no"?>
<!DOCTYPE svg PUBLIC "-//W3C//DTD SVG 20010904//EN" "http://www.w3.org/TR/2001/REC-SVG-20010904/DTD/svg10.dtd">
<!-- Created using Karbon, part of Calligra: http://www.calligra.org/karbon -->
<svg xmlns="http://www.w3.org/2000/svg" xmlns:xlink="http://www.w3.org/1999/xlink" width="56.693pt" height="56.693pt">
<defs/>
<g id="layer0">
  <path id="bell" transform="translate(4.53746, 2.51328)" fill="#ff9d00" d="M21.8984 59.7029L4.28832 59.7029C2.70305 59.6998 1.2475 58.8997 0.498778 57.6191C-0.245845 56.3282 -0.151067 54.7663 0.745098 53.5592L9.25643 42.0995L9.25643 27.7885C9.25598 18.3153 16.5518 10.1586 26.6884 8.29974L26.6884 3.89984C26.6884 1.74602 28.5937 0 30.944 0C33.2944 0 35.1997 1.74602 35.1997 3.89984L35.1997 8.29974C45.3363 10.1586 52.6322 18.3153 52.6318 27.7885L52.6318 42.0856L61.143 53.5458C62.0384 54.7529 62.133 56.3143 61.3893 57.6052C60.6412 58.8862 59.1853 59.6868 57.5997 59.6889L39.9898 59.6889C38.753 63.3087 35.0947 65.7736 30.9554 65.7762C26.8118 65.7844 23.1431 63.3242 21.8984 59.7029Z"/>
 </g>
</svg>
