<?xml version="1.0" standalone="no"?>
<!DOCTYPE svg PUBLIC "-//W3C//DTD SVG 20010904//EN" "http://www.w3.org/TR/2001/REC-SVG-20010904/DTD/svg10.dtd">
<!-- Created using Karbon, part of Calligra: http://www.calligra.org/karbon -->
<svg xmlns="http://www.w3.org/2000/svg" xmlns:xlink="http://www.w3.org/1999/xlink" width="63.7796pt" height="56.693pt">
<defs/>
<g id="layer0">
  <g id="group0" transform="translate(143.471, 56.5323)" fill="none"/>
  <circle id="shape0" transform="translate(44.4357, 2.84008)" r="7.08662645000pt" cx="7.08662645000pt" cy="7.08662645000pt" fill="#17a6bf" fill-rule="evenodd" stroke="#17a6bf" stroke-width="0.00000000000" stroke-linecap="square" stroke-linejoin="miter" stroke-miterlimit="1.98425540600"/>
  <path id="shape1" transform="translate(44.2783, 50.7645)" fill="#17a6bf" fill-rule="evenodd" stroke="#17a6bf" stroke-width="0.00000000000" stroke-linecap="square" stroke-linejoin="miter" stroke-miterlimit="2.00000000000" d="M17.7166 8.85828C17.7166 3.96599 13.7506 2.99567e-16 8.85828 0C3.96599 -2.99567e-16 5.99133e-16 3.96599 0 8.85828C-5.99133e-16 13.7506 3.96599 17.7166 8.85828 17.7166C13.7506 17.7166 17.7166 13.7506 17.7166 8.85828"/>
  <path id="shape2" transform="translate(8.53903, 26.5661)" fill="#17a6bf" fill-rule="evenodd" stroke="#17a6bf" stroke-width="0.00000000000" stroke-linecap="square" stroke-linejoin="miter" stroke-miterlimit="2.00000000000" d="M17.7166 8.85828C17.7166 3.96599 13.7506 2.99567e-16 8.85828 0C3.96599 -2.99567e-16 5.99133e-16 3.96599 0 8.85828C-5.99133e-16 13.7506 3.96599 17.7166 8.85828 17.7166C13.7506 17.7166 17.7166 13.7506 17.7166 8.85828"/>
  <path id="shape3" transform="translate(17.7909, 11.1784)" fill="none" stroke="#17a6bf" stroke-width="7.00158693260" stroke-linecap="square" stroke-linejoin="miter" stroke-miterlimit="1.98425540600" d="M0 24.4035C23.4063 8.13449 35.162 1.44329e-14 35.267 0"/>
  <path id="shape4" transform="translate(17.6335, 35.5818)" fill="none" stroke="#17a6bf" stroke-width="7.00158693260" stroke-linecap="square" stroke-linejoin="miter" stroke-miterlimit="1.98425540600" d="M0 0L35.267 24.7184"/>
 </g>
</svg>
