<svg width="75" height="75" xmlns="http://www.w3.org/2000/svg">
 <g>
  <title>background</title>
  <rect fill="none" id="canvas_background" height="77" width="77" y="-1" x="-1"/>
 </g>
 <g>
  <title>Layer 1</title>
  <g id="layer0">
   <path d="m26.43586,62.21618l-17.61008,0c-1.58527,-0.0031 -3.04082,-0.8032 -3.78954,-2.0838c-0.74463,-1.2909 -0.64985,-2.8528 0.24632,-4.0599l8.51133,-11.4597l0,-14.311c-0.00045,-9.4732 7.29537,-17.6299 17.43197,-19.48876l0,-4.3999c0,-2.15382 1.9053,-3.89984 4.2556,-3.89984c2.3504,0 4.2557,1.74602 4.2557,3.89984l0,4.3999c10.1366,1.85886 17.4325,10.01556 17.4321,19.48876l0,14.2971l8.5112,11.4602c0.8954,1.2071 0.99,2.7685 0.2463,4.0594c-0.7481,1.281 -2.204,2.0816 -3.7896,2.0837l-17.6099,0c-1.2368,3.6198 -4.8951,6.0847 -9.0344,6.0873c-4.1436,0.0082 -7.8123,-2.452 -9.057,-6.0733z" fill="#ff9d00" id="bell"/>
  </g>
  <ellipse ry="16.60867" rx="16.60867" id="svg_1" cy="22.02176" cx="53.67389" stroke-width="0" stroke="#000" fill="#d9534f"/>
  <text font-weight="bold" xml:space="preserve" text-anchor="start" font-family="Helvetica, Arial, sans-serif" font-size="24" id="svg_2" y="29.93479" x="40.54347" stroke-opacity="null" stroke-width="0" stroke="#000" fill="#ffffff"></text>
 </g>
</svg>
