<?xml version="1.0" encoding="UTF-8" standalone="no"?>
<!DOCTYPE svg PUBLIC "-//W3C//DTD SVG 1.1//EN" "http://www.w3.org/Graphics/SVG/1.1/DTD/svg11.dtd">
<svg version="1.1" xmlns="http://www.w3.org/2000/svg" xmlns:xlink="http://www.w3.org/1999/xlink" preserveAspectRatio="xMidYMid meet" viewBox="0 0 20 35" width="20" height="35"><defs><path d="" id="c4mNqaIyjQ"></path><path d="" id="j6UzGLHUyL"></path><path d="" id="h3QdE2ijfl"></path><path d="M12.7 7.85L13.92 8.36L15.04 9.06L16.04 9.91L16.89 10.91L17.59 12.03L18.1 13.25L18.43 14.56L18.54 15.95L18.43 17.33L18.1 18.65L18.04 18.8L18.05 18.8L17.98 18.94L17.59 19.87L16.95 20.9L10 34.09L3.05 20.9L2.41 19.87L2.02 18.94L1.95 18.8L1.96 18.8L1.9 18.65L1.57 17.33L1.46 15.95L1.57 14.56L1.9 13.25L2.41 12.03L3.11 10.91L3.96 9.91L4.96 9.06L6.08 8.36L7.3 7.85L8.62 7.52L10 7.41L11.38 7.52L12.7 7.85ZM8.09 14.2L7.52 15.06L7.3 16.1L7.52 17.15L8.09 18.01L8.95 18.59L10 18.8L11.05 18.59L11.91 18.01L12.48 17.15L12.7 16.1L12.48 15.06L11.91 14.2L11.05 13.62L10 13.41L8.95 13.62L8.09 14.2Z" id="a36iYB8D8"></path></defs><g><g><g><g><use xlink:href="#c4mNqaIyjQ" opacity="1" fill-opacity="0" stroke="#000000" stroke-width="1" stroke-opacity="1"></use></g></g><g><g><use xlink:href="#j6UzGLHUyL" opacity="1" fill-opacity="0" stroke="#000000" stroke-width="1" stroke-opacity="1"></use></g></g><g><g><use xlink:href="#h3QdE2ijfl" opacity="1" fill-opacity="0" stroke="#000000" stroke-width="1" stroke-opacity="1"></use></g></g><g><use xlink:href="#a36iYB8D8" opacity="1" fill="#d9534f" fill-opacity="1"></use><g><use xlink:href="#a36iYB8D8" opacity="1" fill-opacity="0" stroke="#0d0121" stroke-width="0.5" stroke-opacity="1"></use></g></g></g></g></svg>